<svg width="34" height="25" viewBox="0 0 34 25" fill="none" xmlns="http://www.w3.org/2000/svg">
<path fill-rule="evenodd" clip-rule="evenodd" d="M23.6401 3.10471H25.7198C27.3652 3.10471 28.7037 4.44328 28.7037 6.08865V9.52652L28.8855 9.34474C29.8355 8.39266 30.7689 8.64995 31.2793 9.16037L32.5678 10.4489C33.2793 11.1593 33.2793 12.3156 32.5678 13.027L28.7037 16.8911V21.4605C28.7037 23.1058 27.3652 24.4444 25.7198 24.4444H8.53951C6.89414 24.4444 5.55557 23.1058 5.55557 21.4605V6.08865C5.55557 4.44328 6.89414 3.10471 8.53951 3.10471H10.6192V2.01964C10.6192 1.62016 10.9431 1.29626 11.3426 1.29626C11.7421 1.29626 12.066 1.62016 12.066 2.01964V3.10471H22.1933V2.01964C22.1933 1.62016 22.5172 1.29626 22.9167 1.29626C23.3162 1.29626 23.6401 1.62016 23.6401 2.01964V3.10471ZM27.257 10.9731L21.1512 17.0781C21.0387 17.1916 20.9616 17.3375 20.9345 17.4948L20.3824 20.625C20.3376 20.8771 20.4189 21.1333 20.5991 21.3135C20.746 21.4614 20.946 21.5427 21.1512 21.5427C21.196 21.5427 21.2418 21.5385 21.2866 21.5302L24.4168 20.9781C24.5751 20.951 24.7209 20.875 24.8334 20.7614L27.257 18.3379V21.4605C27.257 22.3094 26.5688 22.9977 25.7198 22.9977H8.53951C7.69054 22.9977 7.00233 22.3094 7.00233 21.4605V9.4795C7.00233 9.35467 7.10356 9.25344 7.22839 9.25344H27.0309C27.1557 9.25344 27.257 9.35467 27.257 9.4795V10.9731Z" fill="url(#paint0_linear)"/>
<defs>
<linearGradient id="paint0_linear" x1="19.3285" y1="1.29626" x2="19.3285" y2="24.4444" gradientUnits="userSpaceOnUse">
<stop stop-color="#DEDEDE"/>
<stop offset="1" stop-color="#F7F7F7"/>
</linearGradient>
</defs>
</svg>
