<svg width="25" height="25" viewBox="0 0 25 25" fill="none" xmlns="http://www.w3.org/2000/svg">
<g clip-path="url(#clip0)">
<path d="M3.91602 24.9722L9.83726 23.2847C9.68906 23.2422 2.53848 21.1967 2.97852 21.3226V24.2691C2.97852 24.5034 3.08106 24.7086 3.27149 24.855C3.4793 25.0166 3.68242 25.019 3.91602 24.9722V24.9722Z" fill="url(#paint0_linear)"/>
<path d="M21.7285 24.8551C21.9189 24.7086 22.0215 24.5035 22.0215 24.2692V21.3229C21.8732 21.3653 14.7225 23.4107 15.1626 23.2848L21.084 24.9723C21.3139 25.0183 21.5184 25.0186 21.7285 24.8551Z" fill="url(#paint1_linear)"/>
<path d="M20.5566 0.734467C20.5566 0.234613 20.0668 -0.118463 19.5927 0.0395936L13.2324 2.15932V14.9668C13.7373 14.4783 14.3491 14.0913 15.0478 13.8585L20.5566 12.0226C20.5566 9.58266 20.5566 3.14897 20.5566 0.734467V0.734467Z" fill="url(#paint2_linear)"/>
<path d="M11.7676 14.9671C11.7676 10.0997 11.7676 4.64814 11.7676 2.15932L5.40732 0.039597C4.93315 -0.11846 4.44336 0.234568 4.44336 0.73447V12.0228L9.95225 13.8593C10.6509 14.0918 11.2627 14.4787 11.7676 14.9671Z" fill="url(#paint3_linear)"/>
<path d="M24.0039 2.97504L22.0215 3.70746V15.48C22.0215 15.7954 21.8198 16.0751 21.5208 16.1745L12.7317 19.1042C12.6566 19.1292 12.578 19.1421 12.5 19.1421C12.422 19.1421 12.3434 19.1292 12.2683 19.1042L3.4792 16.1745C3.18022 16.075 2.97852 15.7954 2.97852 15.48V3.70746L0.996094 2.97504C0.761768 2.88715 0.512646 2.93114 0.322217 3.06293C0.117236 3.19481 0 3.42914 0 3.66356V18.4097C0 18.7319 0.219775 19.0248 0.527344 19.1127C0.878467 19.2125 0.664941 19.151 0.569922 19.1236C0.846436 19.2028 2.90273 19.7784 12.499 22.5256C12.5136 22.5217 12.5366 22.5157 12.499 22.5256C12.4993 22.5257 12.4997 22.5258 12.5 22.5258C13.7198 22.1752 13.4237 22.2752 24.4727 19.1127C24.7803 19.0248 25 18.7318 25 18.4096V3.66351C25 3.42909 24.8828 3.19476 24.6778 3.06288C24.4874 2.93114 24.2382 2.88715 24.0039 2.97504V2.97504ZM0.551172 19.1183C0.528857 19.1119 0.52417 19.1105 0.551172 19.1183V19.1183Z" fill="url(#paint4_linear)"/>
<path d="M4.44336 14.9522L11.5867 17.3335C11.2575 16.3678 10.4969 15.5844 9.48877 15.249L4.44336 13.5664V14.9522Z" fill="url(#paint5_linear)"/>
<path d="M13.4133 17.3335L20.5566 14.9522V13.5663L15.5112 15.2483C14.5031 15.5842 13.7425 16.3677 13.4133 17.3335Z" fill="url(#paint6_linear)"/>
</g>
<defs>
<linearGradient id="paint0_linear" x1="6.39814" y1="21.317" x2="6.39814" y2="24.9985" gradientUnits="userSpaceOnUse">
<stop stop-color="#DEDEDE"/>
<stop offset="1" stop-color="#F7F7F7"/>
</linearGradient>
<linearGradient id="paint1_linear" x1="18.5823" y1="21.3229" x2="18.5823" y2="24.9987" gradientUnits="userSpaceOnUse">
<stop stop-color="#DEDEDE"/>
<stop offset="1" stop-color="#F7F7F7"/>
</linearGradient>
<linearGradient id="paint2_linear" x1="16.8945" y1="0.00146484" x2="16.8945" y2="14.9668" gradientUnits="userSpaceOnUse">
<stop stop-color="#DEDEDE"/>
<stop offset="1" stop-color="#F7F7F7"/>
</linearGradient>
<linearGradient id="paint3_linear" x1="8.10547" y1="0.00146484" x2="8.10547" y2="14.9671" gradientUnits="userSpaceOnUse">
<stop stop-color="#DEDEDE"/>
<stop offset="1" stop-color="#F7F7F7"/>
</linearGradient>
<linearGradient id="paint4_linear" x1="12.5" y1="2.92932" x2="12.5" y2="22.5258" gradientUnits="userSpaceOnUse">
<stop stop-color="#DEDEDE"/>
<stop offset="1" stop-color="#F7F7F7"/>
</linearGradient>
<linearGradient id="paint5_linear" x1="8.01504" y1="13.5664" x2="8.01504" y2="17.3335" gradientUnits="userSpaceOnUse">
<stop stop-color="#DEDEDE"/>
<stop offset="1" stop-color="#F7F7F7"/>
</linearGradient>
<linearGradient id="paint6_linear" x1="16.9849" y1="13.5663" x2="16.9849" y2="17.3335" gradientUnits="userSpaceOnUse">
<stop stop-color="#DEDEDE"/>
<stop offset="1" stop-color="#F7F7F7"/>
</linearGradient>
<clipPath id="clip0">
<rect width="25" height="25" fill="white"/>
</clipPath>
</defs>
</svg>
