<svg width="25" height="25" viewBox="0 0 25 25" fill="none" xmlns="http://www.w3.org/2000/svg">
<g clip-path="url(#clip0)">
<path d="M24.7712 12.2737L15.0552 1.90889C13.646 0.406184 11.354 0.406184 9.94483 1.90889L0.228915 12.2737C-0.0762642 12.5992 -0.0762642 13.1268 0.228915 13.4524C0.533605 13.7779 1.02873 13.7779 1.33342 13.4524L1.95305 12.7914V23.3859C1.95305 24.7091 2.95868 25.7819 4.19917 25.7819H8.10546C8.37514 25.7819 8.59375 25.5487 8.59375 25.261V17.5521C8.59375 16.1138 9.68682 14.9478 11.0352 14.9478H13.9649C15.3132 14.9478 16.4063 16.1138 16.4063 17.5521V25.261C16.4063 25.5487 16.6249 25.7819 16.8946 25.7819H20.8009C22.0414 25.7819 23.047 24.7091 23.047 23.3859V12.7914L23.6667 13.4524C23.819 13.6149 24.0192 13.6967 24.2189 13.6967C24.4186 13.6967 24.6188 13.6149 24.7712 13.4524C25.0763 13.1268 25.0763 12.5992 24.7712 12.2737V12.2737Z" fill="#50D890"/>
</g>
<defs>
<clipPath id="clip0">
<rect width="25" height="25" fill="white"/>
</clipPath>
</defs>
</svg>
