<svg width="34" height="25" viewBox="0 0 34 25" fill="none" xmlns="http://www.w3.org/2000/svg">
<path fill-rule="evenodd" clip-rule="evenodd" d="M22.8786 1.95312H25.1257C26.9035 1.95312 28.3498 3.39878 28.3498 5.17578V8.88862L28.5462 8.6923C29.5727 7.66405 30.5811 7.94192 31.1326 8.49317L32.5249 9.8848C33.2936 10.6521 33.2936 11.9008 32.5249 12.6692L28.3498 16.8424V21.7773C28.3498 23.5543 26.9035 25 25.1257 25H6.56266C4.78486 25 3.33856 23.5543 3.33856 21.7773V5.17578C3.33856 3.39878 4.78486 1.95312 6.56266 1.95312H8.80976V0.78125C8.80976 0.349805 9.15968 0 9.59136 0C10.0231 0 10.373 0.349805 10.373 0.78125V1.95312H21.3154V0.78125C21.3154 0.349805 21.6653 0 22.097 0C22.5287 0 22.8786 0.349805 22.8786 0.78125V1.95312ZM26.7866 10.4509L20.1894 17.0443C20.0678 17.1669 19.9845 17.3244 19.9552 17.4943L19.3587 20.8749C19.3103 21.1472 19.3981 21.424 19.5928 21.6186C19.7515 21.7783 19.9676 21.8661 20.1894 21.8661C20.2377 21.8661 20.2873 21.8616 20.3357 21.8526L23.7178 21.2563C23.8889 21.2271 24.0464 21.145 24.168 21.0223L26.7866 18.4049V21.7773C26.7866 22.6942 26.043 23.4375 25.1257 23.4375H6.56266C5.64536 23.4375 4.90176 22.6942 4.90176 21.7773V8.83789C4.90176 8.70308 5.01114 8.59375 5.14601 8.59375H26.5423C26.6772 8.59375 26.7866 8.70308 26.7866 8.83789V10.4509Z" fill="#50D890"/>
</svg>
